<?xml version="1.0" encoding="utf-8" standalone="no"?>
<!DOCTYPE svg PUBLIC "-//W3C//DTD SVG 1.1//EN"
  "http://www.w3.org/Graphics/SVG/1.1/DTD/svg11.dtd">
<svg xmlns:xlink="http://www.w3.org/1999/xlink" width="252pt" height="198pt" viewBox="0 0 252 198" xmlns="http://www.w3.org/2000/svg" version="1.1">
 <metadata>
  <rdf:RDF xmlns:dc="http://purl.org/dc/elements/1.1/" xmlns:cc="http://creativecommons.org/ns#" xmlns:rdf="http://www.w3.org/1999/02/22-rdf-syntax-ns#">
   <cc:Work>
    <dc:type rdf:resource="http://purl.org/dc/dcmitype/StillImage"/>
    <dc:date>2026-09-05T19:59:19.923240</dc:date>
    <dc:format>image/svg+xml</dc:format>
    <dc:creator>
     <cc:Agent>
      <dc:title>Matplotlib v3.10.8, https://matplotlib.org/</dc:title>
     </cc:Agent>
    </dc:creator>
   </cc:Work>
  </rdf:RDF>
 </metadata>
 <defs>
  <style type="text/css">*{stroke-linejoin: round; stroke-linecap: butt}</style>
 </defs>
 <g id="figure_1">
  <g id="patch_1">
   <path d="M 0 198 
L 252 198 
L 252 0 
L 0 0 
z
" style="fill: #ffffff"/>
  </g>
  <g id="axes_1">
   <g id="patch_2">
    <path d="M 32.256 141.57 
L 248.472 141.57 
L 248.472 5.94 
L 32.256 5.94 
z
" style="fill: #ffffff"/>
   </g>
   <g id="matplotlib.axis_1">
    <g id="xtick_1">
     <g id="line2d_1">
      <path d="M 40.047568 141.57 
L 40.047568 5.94 
" clip-path="url(#pc41d7e54d9)" style="fill: none; stroke: #e0e0e0; stroke-width: 0.5; stroke-linecap: square"/>
     </g>
     <g id="line2d_2">
      <defs>
       <path id="ma1ba0640e3" d="M 0 0 
L 0 2.5 
" style="stroke: #000000; stroke-width: 0.6"/>
      </defs>
      <g>
       <use xlink:href="#ma1ba0640e3" x="40.047568" y="141.57" style="stroke: #000000; stroke-width: 0.6"/>
      </g>
     </g>
     <g id="text_1">
      <text style="font-size: 7px; font-family: 'Nimbus Roman', 'Times New Roman', 'Liberation Serif', 'DejaVu Serif', serif; text-anchor: middle" x="40.047568" y="152.350781" transform="rotate(-0 40.047568 152.350781)">0</text>
     </g>
    </g>
    <g id="xtick_2">
     <g id="line2d_3">
      <path d="M 88.744865 141.57 
L 88.744865 5.94 
" clip-path="url(#pc41d7e54d9)" style="fill: none; stroke: #e0e0e0; stroke-width: 0.5; stroke-linecap: square"/>
     </g>
     <g id="line2d_4">
      <g>
       <use xlink:href="#ma1ba0640e3" x="88.744865" y="141.57" style="stroke: #000000; stroke-width: 0.6"/>
      </g>
     </g>
     <g id="text_2">
      <text style="font-size: 7px; font-family: 'Nimbus Roman', 'Times New Roman', 'Liberation Serif', 'DejaVu Serif', serif; text-anchor: middle" x="88.744865" y="152.350781" transform="rotate(-0 88.744865 152.350781)">25</text>
     </g>
    </g>
    <g id="xtick_3">
     <g id="line2d_5">
      <path d="M 137.442162 141.57 
L 137.442162 5.94 
" clip-path="url(#pc41d7e54d9)" style="fill: none; stroke: #e0e0e0; stroke-width: 0.5; stroke-linecap: square"/>
     </g>
     <g id="line2d_6">
      <g>
       <use xlink:href="#ma1ba0640e3" x="137.442162" y="141.57" style="stroke: #000000; stroke-width: 0.6"/>
      </g>
     </g>
     <g id="text_3">
      <text style="font-size: 7px; font-family: 'Nimbus Roman', 'Times New Roman', 'Liberation Serif', 'DejaVu Serif', serif; text-anchor: middle" x="137.442162" y="152.350781" transform="rotate(-0 137.442162 152.350781)">50</text>
     </g>
    </g>
    <g id="xtick_4">
     <g id="line2d_7">
      <path d="M 186.139459 141.57 
L 186.139459 5.94 
" clip-path="url(#pc41d7e54d9)" style="fill: none; stroke: #e0e0e0; stroke-width: 0.5; stroke-linecap: square"/>
     </g>
     <g id="line2d_8">
      <g>
       <use xlink:href="#ma1ba0640e3" x="186.139459" y="141.57" style="stroke: #000000; stroke-width: 0.6"/>
      </g>
     </g>
     <g id="text_4">
      <text style="font-size: 7px; font-family: 'Nimbus Roman', 'Times New Roman', 'Liberation Serif', 'DejaVu Serif', serif; text-anchor: middle" x="186.139459" y="152.350781" transform="rotate(-0 186.139459 152.350781)">75</text>
     </g>
    </g>
    <g id="xtick_5">
     <g id="line2d_9">
      <path d="M 234.836757 141.57 
L 234.836757 5.94 
" clip-path="url(#pc41d7e54d9)" style="fill: none; stroke: #e0e0e0; stroke-width: 0.5; stroke-linecap: square"/>
     </g>
     <g id="line2d_10">
      <g>
       <use xlink:href="#ma1ba0640e3" x="234.836757" y="141.57" style="stroke: #000000; stroke-width: 0.6"/>
      </g>
     </g>
     <g id="text_5">
      <text style="font-size: 7px; font-family: 'Nimbus Roman', 'Times New Roman', 'Liberation Serif', 'DejaVu Serif', serif; text-anchor: middle" x="234.836757" y="152.350781" transform="rotate(-0 234.836757 152.350781)">100</text>
     </g>
    </g>
    <g id="text_6">
     <text style="font-size: 8px; font-family: 'Nimbus Roman', 'Times New Roman', 'Liberation Serif', 'DejaVu Serif', serif; text-anchor: middle" x="140.364" y="161.33375" transform="rotate(-0 140.364 161.33375)">success rate (%)</text>
    </g>
   </g>
   <g id="matplotlib.axis_2">
    <g id="ytick_1">
     <g id="line2d_11">
      <path d="M 32.256 19.503 
L 248.472 19.503 
" clip-path="url(#pc41d7e54d9)" style="fill: none; stroke: #e0e0e0; stroke-width: 0.5; stroke-linecap: square"/>
     </g>
     <g id="line2d_12">
      <defs>
       <path id="me0265948c2" d="M 0 0 
L -2.5 0 
" style="stroke: #000000; stroke-width: 0.6"/>
      </defs>
      <g>
       <use xlink:href="#me0265948c2" x="32.256" y="19.503" style="stroke: #000000; stroke-width: 0.6"/>
      </g>
     </g>
     <g id="text_7">
      <text style="font-size: 7px; font-family: 'Nimbus Roman', 'Times New Roman', 'Liberation Serif', 'DejaVu Serif', serif; text-anchor: end" x="26.256" y="21.893391" transform="rotate(-0 26.256 21.893391)">1.2</text>
     </g>
    </g>
    <g id="ytick_2">
     <g id="line2d_13">
      <path d="M 32.256 37.587 
L 248.472 37.587 
" clip-path="url(#pc41d7e54d9)" style="fill: none; stroke: #e0e0e0; stroke-width: 0.5; stroke-linecap: square"/>
     </g>
     <g id="line2d_14">
      <g>
       <use xlink:href="#me0265948c2" x="32.256" y="37.587" style="stroke: #000000; stroke-width: 0.6"/>
      </g>
     </g>
     <g id="text_8">
      <text style="font-size: 7px; font-family: 'Nimbus Roman', 'Times New Roman', 'Liberation Serif', 'DejaVu Serif', serif; text-anchor: end" x="26.256" y="39.977391" transform="rotate(-0 26.256 39.977391)">1.4</text>
     </g>
    </g>
    <g id="ytick_3">
     <g id="line2d_15">
      <path d="M 32.256 55.671 
L 248.472 55.671 
" clip-path="url(#pc41d7e54d9)" style="fill: none; stroke: #e0e0e0; stroke-width: 0.5; stroke-linecap: square"/>
     </g>
     <g id="line2d_16">
      <g>
       <use xlink:href="#me0265948c2" x="32.256" y="55.671" style="stroke: #000000; stroke-width: 0.6"/>
      </g>
     </g>
     <g id="text_9">
      <text style="font-size: 7px; font-family: 'Nimbus Roman', 'Times New Roman', 'Liberation Serif', 'DejaVu Serif', serif; text-anchor: end" x="26.256" y="58.061391" transform="rotate(-0 26.256 58.061391)">1.6</text>
     </g>
    </g>
    <g id="ytick_4">
     <g id="line2d_17">
      <path d="M 32.256 73.755 
L 248.472 73.755 
" clip-path="url(#pc41d7e54d9)" style="fill: none; stroke: #e0e0e0; stroke-width: 0.5; stroke-linecap: square"/>
     </g>
     <g id="line2d_18">
      <g>
       <use xlink:href="#me0265948c2" x="32.256" y="73.755" style="stroke: #000000; stroke-width: 0.6"/>
      </g>
     </g>
     <g id="text_10">
      <text style="font-size: 7px; font-family: 'Nimbus Roman', 'Times New Roman', 'Liberation Serif', 'DejaVu Serif', serif; text-anchor: end" x="26.256" y="76.145391" transform="rotate(-0 26.256 76.145391)">1.8</text>
     </g>
    </g>
    <g id="ytick_5">
     <g id="line2d_19">
      <path d="M 32.256 91.839 
L 248.472 91.839 
" clip-path="url(#pc41d7e54d9)" style="fill: none; stroke: #e0e0e0; stroke-width: 0.5; stroke-linecap: square"/>
     </g>
     <g id="line2d_20">
      <g>
       <use xlink:href="#me0265948c2" x="32.256" y="91.839" style="stroke: #000000; stroke-width: 0.6"/>
      </g>
     </g>
     <g id="text_11">
      <text style="font-size: 7px; font-family: 'Nimbus Roman', 'Times New Roman', 'Liberation Serif', 'DejaVu Serif', serif; text-anchor: end" x="26.256" y="94.229391" transform="rotate(-0 26.256 94.229391)">2.0</text>
     </g>
    </g>
    <g id="ytick_6">
     <g id="line2d_21">
      <path d="M 32.256 109.923 
L 248.472 109.923 
" clip-path="url(#pc41d7e54d9)" style="fill: none; stroke: #e0e0e0; stroke-width: 0.5; stroke-linecap: square"/>
     </g>
     <g id="line2d_22">
      <g>
       <use xlink:href="#me0265948c2" x="32.256" y="109.923" style="stroke: #000000; stroke-width: 0.6"/>
      </g>
     </g>
     <g id="text_12">
      <text style="font-size: 7px; font-family: 'Nimbus Roman', 'Times New Roman', 'Liberation Serif', 'DejaVu Serif', serif; text-anchor: end" x="26.256" y="112.313391" transform="rotate(-0 26.256 112.313391)">2.2</text>
     </g>
    </g>
    <g id="ytick_7">
     <g id="line2d_23">
      <path d="M 32.256 128.007 
L 248.472 128.007 
" clip-path="url(#pc41d7e54d9)" style="fill: none; stroke: #e0e0e0; stroke-width: 0.5; stroke-linecap: square"/>
     </g>
     <g id="line2d_24">
      <g>
       <use xlink:href="#me0265948c2" x="32.256" y="128.007" style="stroke: #000000; stroke-width: 0.6"/>
      </g>
     </g>
     <g id="text_13">
      <text style="font-size: 7px; font-family: 'Nimbus Roman', 'Times New Roman', 'Liberation Serif', 'DejaVu Serif', serif; text-anchor: end" x="26.256" y="130.397391" transform="rotate(-0 26.256 130.397391)">2.4</text>
     </g>
    </g>
    <g id="text_14">
     <!-- median length / $L_\mathrm{ref}$ -->
     <g transform="translate(11.746 105.155) rotate(-90)">
      <text>
       <tspan x="0" y="-0.15625" style="font-size: 8px; font-family: 'Nimbus Roman'">m</tspan>
       <tspan x="6.223984" y="-0.15625" style="font-size: 8px; font-family: 'Nimbus Roman'">e</tspan>
       <tspan x="9.77597" y="-0.15625" style="font-size: 8px; font-family: 'Nimbus Roman'">d</tspan>
       <tspan x="13.775955" y="-0.15625" style="font-size: 8px; font-family: 'Nimbus Roman'">i</tspan>
       <tspan x="15.999939" y="-0.15625" style="font-size: 8px; font-family: 'Nimbus Roman'">a</tspan>
       <tspan x="19.551926" y="-0.15625" style="font-size: 8px; font-family: 'Nimbus Roman'">n</tspan>
       <tspan x="23.55191" y="-0.15625" style="font-size: 8px; font-family: 'Nimbus Roman'"> </tspan>
       <tspan x="25.551895" y="-0.15625" style="font-size: 8px; font-family: 'Nimbus Roman'">l</tspan>
       <tspan x="27.775879" y="-0.15625" style="font-size: 8px; font-family: 'Nimbus Roman'">e</tspan>
       <tspan x="31.327866" y="-0.15625" style="font-size: 8px; font-family: 'Nimbus Roman'">n</tspan>
       <tspan x="35.32785" y="-0.15625" style="font-size: 8px; font-family: 'Nimbus Roman'">g</tspan>
       <tspan x="39.327835" y="-0.15625" style="font-size: 8px; font-family: 'Nimbus Roman'">t</tspan>
       <tspan x="41.551819" y="-0.15625" style="font-size: 8px; font-family: 'Nimbus Roman'">h</tspan>
       <tspan x="45.551804" y="-0.15625" style="font-size: 8px; font-family: 'Nimbus Roman'"> </tspan>
       <tspan x="47.551788" y="-0.15625" style="font-size: 8px; font-family: 'Nimbus Roman'">/</tspan>
       <tspan x="49.775772" y="-0.15625" style="font-size: 8px; font-family: 'Nimbus Roman'"> </tspan>
       <tspan x="51.775757" y="-0.15625" style="font-style: italic; font-size: 8px; font-family: 'STIXGeneral'">L</tspan>
       <tspan x="56.22374" y="0.903125" style="font-size: 5.6px; font-family: 'STIXGeneral'">r</tspan>
       <tspan x="58.08853" y="0.903125" style="font-size: 5.6px; font-family: 'STIXGeneral'">e</tspan>
       <tspan x="60.574921" y="0.903125" style="font-size: 5.6px; font-family: 'STIXGeneral'">f</tspan>
      </text>
     </g>
    </g>
   </g>
   <g id="line2d_25">
    <path d="M 234.836757 12.956592 
L 234.836757 13.227852 
L 234.836757 13.94217 
L 234.836757 16.56435 
L 227.045189 23.273514 
L 195.878919 28.969974 
L 156.921081 30.344358 
L 117.963243 38.283234 
" clip-path="url(#pc41d7e54d9)" style="fill: none; stroke: #000000; stroke-width: 1.5; stroke-linecap: round"/>
   </g>
   <g id="line2d_26">
    <path d="M 230.940973 18.653052 
L 223.149405 18.653052 
L 215.357838 22.902792 
L 180.295784 23.21022 
L 160.816865 27.604632 
L 145.23373 28.427454 
L 102.380108 34.10583 
L 82.901189 32.541564 
" clip-path="url(#pc41d7e54d9)" style="fill: none; stroke-dasharray: 0.99,1.215; stroke-dashoffset: 0; stroke: #8c8c8c; stroke-width: 0.9; stroke-linecap: round"/>
   </g>
   <g id="line2d_27">
    <path d="M 234.836757 15.25326 
L 234.836757 18.87006 
L 234.836757 19.530126 
L 223.149405 19.023774 
L 184.191568 21.08535 
L 141.337946 21.392778 
L 86.796973 98.34924 
L 71.213838 131.497212 
" clip-path="url(#pc41d7e54d9)" style="fill: none; stroke-dasharray: 0.99,1.215; stroke-dashoffset: 0; stroke: #8c8c8c; stroke-width: 0.9; stroke-linecap: round"/>
   </g>
   <g id="line2d_28">
    <path d="M 234.836757 35.435004 
L 215.357838 47.189604 
L 195.878919 62.18124 
L 176.4 64.57737 
L 137.442162 68.338842 
L 102.380108 93.746862 
L 59.526486 80.03919 
L 51.734919 107.997054 
" clip-path="url(#pc41d7e54d9)" style="fill: none; stroke-dasharray: 0.99,1.215; stroke-dashoffset: 0; stroke: #8c8c8c; stroke-width: 0.9; stroke-linecap: round"/>
   </g>
   <g id="line2d_29">
    <path d="M 215.357838 21.230022 
L 90.692757 16.302132 
L 79.005405 24.65694 
L 67.318054 24.06921 
L 55.630703 19.801386 
L 47.839135 13.435818 
L 47.839135 13.571448 
L 47.839135 13.471986 
" clip-path="url(#pc41d7e54d9)" style="fill: none; stroke-dasharray: 0.99,1.215; stroke-dashoffset: 0; stroke: #8c8c8c; stroke-width: 0.9; stroke-linecap: round"/>
   </g>
   <g id="patch_3">
    <path d="M 32.256 141.57 
L 32.256 5.94 
" style="fill: none; stroke: #000000; stroke-width: 0.6; stroke-linejoin: miter; stroke-linecap: square"/>
   </g>
   <g id="patch_4">
    <path d="M 32.256 141.57 
L 248.472 141.57 
" style="fill: none; stroke: #000000; stroke-width: 0.6; stroke-linejoin: miter; stroke-linecap: square"/>
   </g>
   <g id="PathCollection_1">
    <path d="M 228.440973 21.153052 
L 233.440973 21.153052 
L 233.440973 16.153052 
L 228.440973 16.153052 
z
" clip-path="url(#pc41d7e54d9)" style="fill: #081d58; stroke: #262626; stroke-width: 0.6"/>
    <path d="M 220.649405 21.153052 
L 225.649405 21.153052 
L 225.649405 16.153052 
L 220.649405 16.153052 
z
" clip-path="url(#pc41d7e54d9)" style="fill: #253494; stroke: #262626; stroke-width: 0.6"/>
    <path d="M 212.857838 25.402792 
L 217.857838 25.402792 
L 217.857838 20.402792 
L 212.857838 20.402792 
z
" clip-path="url(#pc41d7e54d9)" style="fill: #2260a9; stroke: #262626; stroke-width: 0.6"/>
    <path d="M 177.795784 25.71022 
L 182.795784 25.71022 
L 182.795784 20.71022 
L 177.795784 20.71022 
z
" clip-path="url(#pc41d7e54d9)" style="fill: #2094c0; stroke: #262626; stroke-width: 0.6"/>
    <path d="M 158.316865 30.104632 
L 163.316865 30.104632 
L 163.316865 25.104632 
L 158.316865 25.104632 
z
" clip-path="url(#pc41d7e54d9)" style="fill: #48b9c3; stroke: #262626; stroke-width: 0.6"/>
    <path d="M 142.73373 30.927454 
L 147.73373 30.927454 
L 147.73373 25.927454 
L 142.73373 25.927454 
z
" clip-path="url(#pc41d7e54d9)" style="fill: #89d1ba; stroke: #262626; stroke-width: 0.6"/>
    <path d="M 99.880108 36.60583 
L 104.880108 36.60583 
L 104.880108 31.60583 
L 99.880108 31.60583 
z
" clip-path="url(#pc41d7e54d9)" style="fill: #ceecb3; stroke: #262626; stroke-width: 0.6"/>
    <path d="M 80.401189 35.041564 
L 85.401189 35.041564 
L 85.401189 30.041564 
L 80.401189 30.041564 
z
" clip-path="url(#pc41d7e54d9)" style="fill: #f1faba; stroke: #262626; stroke-width: 0.6"/>
   </g>
   <g id="PathCollection_2">
    <path d="M 234.836757 12.75326 
L 232.336757 17.75326 
L 237.336757 17.75326 
z
" clip-path="url(#pc41d7e54d9)" style="fill: #081d58; stroke: #262626; stroke-width: 0.6"/>
    <path d="M 234.836757 16.37006 
L 232.336757 21.37006 
L 237.336757 21.37006 
z
" clip-path="url(#pc41d7e54d9)" style="fill: #253494; stroke: #262626; stroke-width: 0.6"/>
    <path d="M 234.836757 17.030126 
L 232.336757 22.030126 
L 237.336757 22.030126 
z
" clip-path="url(#pc41d7e54d9)" style="fill: #2260a9; stroke: #262626; stroke-width: 0.6"/>
    <path d="M 223.149405 16.523774 
L 220.649405 21.523774 
L 225.649405 21.523774 
z
" clip-path="url(#pc41d7e54d9)" style="fill: #2094c0; stroke: #262626; stroke-width: 0.6"/>
    <path d="M 184.191568 18.58535 
L 181.691568 23.58535 
L 186.691568 23.58535 
z
" clip-path="url(#pc41d7e54d9)" style="fill: #48b9c3; stroke: #262626; stroke-width: 0.6"/>
    <path d="M 141.337946 18.892778 
L 138.837946 23.892778 
L 143.837946 23.892778 
z
" clip-path="url(#pc41d7e54d9)" style="fill: #89d1ba; stroke: #262626; stroke-width: 0.6"/>
    <path d="M 86.796973 95.84924 
L 84.296973 100.84924 
L 89.296973 100.84924 
z
" clip-path="url(#pc41d7e54d9)" style="fill: #ceecb3; stroke: #262626; stroke-width: 0.6"/>
    <path d="M 71.213838 128.997212 
L 68.713838 133.997212 
L 73.713838 133.997212 
z
" clip-path="url(#pc41d7e54d9)" style="fill: #f1faba; stroke: #262626; stroke-width: 0.6"/>
   </g>
   <g id="PathCollection_3">
    <defs>
     <path id="C0_0_49aa51087c" d="M 0 2.5 
C 0.663008 2.5 1.29895 2.236584 1.767767 1.767767 
C 2.236584 1.29895 2.5 0.663008 2.5 -0 
C 2.5 -0.663008 2.236584 -1.29895 1.767767 -1.767767 
C 1.29895 -2.236584 0.663008 -2.5 0 -2.5 
C -0.663008 -2.5 -1.29895 -2.236584 -1.767767 -1.767767 
C -2.236584 -1.29895 -2.5 -0.663008 -2.5 0 
C -2.5 0.663008 -2.236584 1.29895 -1.767767 1.767767 
C -1.29895 2.236584 -0.663008 2.5 0 2.5 
z
"/>
    </defs>
    <g clip-path="url(#pc41d7e54d9)">
     <use xlink:href="#C0_0_49aa51087c" x="234.836757" y="35.435004" style="fill: #081d58; stroke: #262626; stroke-width: 0.6"/>
    </g>
    <g clip-path="url(#pc41d7e54d9)">
     <use xlink:href="#C0_0_49aa51087c" x="215.357838" y="47.189604" style="fill: #253494; stroke: #262626; stroke-width: 0.6"/>
    </g>
    <g clip-path="url(#pc41d7e54d9)">
     <use xlink:href="#C0_0_49aa51087c" x="195.878919" y="62.18124" style="fill: #2260a9; stroke: #262626; stroke-width: 0.6"/>
    </g>
    <g clip-path="url(#pc41d7e54d9)">
     <use xlink:href="#C0_0_49aa51087c" x="176.4" y="64.57737" style="fill: #2094c0; stroke: #262626; stroke-width: 0.6"/>
    </g>
    <g clip-path="url(#pc41d7e54d9)">
     <use xlink:href="#C0_0_49aa51087c" x="137.442162" y="68.338842" style="fill: #48b9c3; stroke: #262626; stroke-width: 0.6"/>
    </g>
    <g clip-path="url(#pc41d7e54d9)">
     <use xlink:href="#C0_0_49aa51087c" x="102.380108" y="93.746862" style="fill: #89d1ba; stroke: #262626; stroke-width: 0.6"/>
    </g>
    <g clip-path="url(#pc41d7e54d9)">
     <use xlink:href="#C0_0_49aa51087c" x="59.526486" y="80.03919" style="fill: #ceecb3; stroke: #262626; stroke-width: 0.6"/>
    </g>
    <g clip-path="url(#pc41d7e54d9)">
     <use xlink:href="#C0_0_49aa51087c" x="51.734919" y="107.997054" style="fill: #f1faba; stroke: #262626; stroke-width: 0.6"/>
    </g>
   </g>
   <g id="PathCollection_4">
    <path d="M 215.357838 23.730022 
L 217.857838 18.730022 
L 212.857838 18.730022 
z
" clip-path="url(#pc41d7e54d9)" style="fill: #081d58; stroke: #262626; stroke-width: 0.6"/>
    <path d="M 90.692757 18.802132 
L 93.192757 13.802132 
L 88.192757 13.802132 
z
" clip-path="url(#pc41d7e54d9)" style="fill: #253494; stroke: #262626; stroke-width: 0.6"/>
    <path d="M 79.005405 27.15694 
L 81.505405 22.15694 
L 76.505405 22.15694 
z
" clip-path="url(#pc41d7e54d9)" style="fill: #2260a9; stroke: #262626; stroke-width: 0.6"/>
    <path d="M 67.318054 26.56921 
L 69.818054 21.56921 
L 64.818054 21.56921 
z
" clip-path="url(#pc41d7e54d9)" style="fill: #2094c0; stroke: #262626; stroke-width: 0.6"/>
    <path d="M 55.630703 22.301386 
L 58.130703 17.301386 
L 53.130703 17.301386 
z
" clip-path="url(#pc41d7e54d9)" style="fill: #48b9c3; stroke: #262626; stroke-width: 0.6"/>
    <path d="M 47.839135 15.935818 
L 50.339135 10.935818 
L 45.339135 10.935818 
z
" clip-path="url(#pc41d7e54d9)" style="fill: #89d1ba; stroke: #262626; stroke-width: 0.6"/>
    <path d="M 47.839135 16.071448 
L 50.339135 11.071448 
L 45.339135 11.071448 
z
" clip-path="url(#pc41d7e54d9)" style="fill: #ceecb3; stroke: #262626; stroke-width: 0.6"/>
    <path d="M 47.839135 15.971986 
L 50.339135 10.971986 
L 45.339135 10.971986 
z
" clip-path="url(#pc41d7e54d9)" style="fill: #f1faba; stroke: #262626; stroke-width: 0.6"/>
   </g>
   <g id="legend_1">
    <g id="line2d_30">
     <path d="M 201.528797 101.815391 
L 207.703797 101.815391 
L 213.878797 101.815391 
" style="fill: none; stroke: #000000; stroke-width: 1.5; stroke-linecap: square"/>
     <defs>
      <path id="m9a4eb1d093" d="M -0 3.818377 
L 3.818377 0 
L 0 -3.818377 
L -3.818377 -0 
z
" style="stroke: #262626; stroke-width: 0.6; stroke-linejoin: miter"/>
     </defs>
     <g>
      <use xlink:href="#m9a4eb1d093" x="207.703797" y="101.815391" style="fill: #ebebeb; stroke: #262626; stroke-width: 0.6; stroke-linejoin: miter"/>
     </g>
    </g>
    <g id="text_15">
     <text style="font-size: 6.5px; font-family: 'Nimbus Roman', 'Times New Roman', 'Liberation Serif', 'DejaVu Serif', serif; text-anchor: start" x="217.128797" y="104.090391" transform="rotate(-0 217.128797 104.090391)">Ours</text>
    </g>
    <g id="line2d_31">
     <path d="M 201.528797 109.856094 
L 207.703797 109.856094 
L 213.878797 109.856094 
" style="fill: none; stroke-dasharray: 0.99,1.215; stroke-dashoffset: 0; stroke: #8c8c8c; stroke-width: 0.9"/>
     <defs>
      <path id="m108cab3b22" d="M -2.3 2.3 
L 2.3 2.3 
L 2.3 -2.3 
L -2.3 -2.3 
z
" style="stroke: #262626; stroke-width: 0.6; stroke-linejoin: miter"/>
     </defs>
     <g>
      <use xlink:href="#m108cab3b22" x="207.703797" y="109.856094" style="fill: #ebebeb; stroke: #262626; stroke-width: 0.6; stroke-linejoin: miter"/>
     </g>
    </g>
    <g id="text_16">
     <text style="font-size: 6.5px; font-family: 'Nimbus Roman', 'Times New Roman', 'Liberation Serif', 'DejaVu Serif', serif; text-anchor: start" x="217.128797" y="112.131094" transform="rotate(-0 217.128797 112.131094)">Formation</text>
    </g>
    <g id="line2d_32">
     <path d="M 201.528797 117.896797 
L 207.703797 117.896797 
L 213.878797 117.896797 
" style="fill: none; stroke-dasharray: 0.99,1.215; stroke-dashoffset: 0; stroke: #8c8c8c; stroke-width: 0.9"/>
     <defs>
      <path id="m50fb040b91" d="M 0 -2.3 
L -2.3 2.3 
L 2.3 2.3 
z
" style="stroke: #262626; stroke-width: 0.6; stroke-linejoin: miter"/>
     </defs>
     <g>
      <use xlink:href="#m50fb040b91" x="207.703797" y="117.896797" style="fill: #ebebeb; stroke: #262626; stroke-width: 0.6; stroke-linejoin: miter"/>
     </g>
    </g>
    <g id="text_17">
     <text style="font-size: 6.5px; font-family: 'Nimbus Roman', 'Times New Roman', 'Liberation Serif', 'DejaVu Serif', serif; text-anchor: start" x="217.128797" y="120.171797" transform="rotate(-0 217.128797 120.171797)">Sequential</text>
    </g>
    <g id="line2d_33">
     <path d="M 201.528797 125.9375 
L 207.703797 125.9375 
L 213.878797 125.9375 
" style="fill: none; stroke-dasharray: 0.99,1.215; stroke-dashoffset: 0; stroke: #8c8c8c; stroke-width: 0.9"/>
     <defs>
      <path id="mf6a44b8905" d="M 0 2.3 
C 0.609967 2.3 1.195034 2.057657 1.626346 1.626346 
C 2.057657 1.195034 2.3 0.609967 2.3 0 
C 2.3 -0.609967 2.057657 -1.195034 1.626346 -1.626346 
C 1.195034 -2.057657 0.609967 -2.3 0 -2.3 
C -0.609967 -2.3 -1.195034 -2.057657 -1.626346 -1.626346 
C -2.057657 -1.195034 -2.3 -0.609967 -2.3 0 
C -2.3 0.609967 -2.057657 1.195034 -1.626346 1.626346 
C -1.195034 2.057657 -0.609967 2.3 0 2.3 
z
" style="stroke: #262626; stroke-width: 0.6"/>
     </defs>
     <g>
      <use xlink:href="#mf6a44b8905" x="207.703797" y="125.9375" style="fill: #ebebeb; stroke: #262626; stroke-width: 0.6"/>
     </g>
    </g>
    <g id="text_18">
     <text style="font-size: 6.5px; font-family: 'Nimbus Roman', 'Times New Roman', 'Liberation Serif', 'DejaVu Serif', serif; text-anchor: start" x="217.128797" y="128.2125" transform="rotate(-0 217.128797 128.2125)">CL-GBT</text>
    </g>
    <g id="line2d_34">
     <path d="M 201.528797 133.978203 
L 207.703797 133.978203 
L 213.878797 133.978203 
" style="fill: none; stroke-dasharray: 0.99,1.215; stroke-dashoffset: 0; stroke: #8c8c8c; stroke-width: 0.9"/>
     <defs>
      <path id="mcade12dcdb" d="M -0 2.3 
L 2.3 -2.3 
L -2.3 -2.3 
z
" style="stroke: #262626; stroke-width: 0.6; stroke-linejoin: miter"/>
     </defs>
     <g>
      <use xlink:href="#mcade12dcdb" x="207.703797" y="133.978203" style="fill: #ebebeb; stroke: #262626; stroke-width: 0.6; stroke-linejoin: miter"/>
     </g>
    </g>
    <g id="text_19">
     <text style="font-size: 6.5px; font-family: 'Nimbus Roman', 'Times New Roman', 'Liberation Serif', 'DejaVu Serif', serif; text-anchor: start" x="217.128797" y="136.253203" transform="rotate(-0 217.128797 136.253203)">Greedy</text>
    </g>
   </g>
   <g id="PathCollection_5">
    <path d="M 234.836757 17.199233 
L 239.079397 12.956592 
L 234.836757 8.713951 
L 230.594116 12.956592 
z
" clip-path="url(#pc41d7e54d9)" style="fill: #081d58; stroke: #262626; stroke-width: 0.6"/>
    <path d="M 234.836757 17.470493 
L 239.079397 13.227852 
L 234.836757 8.985211 
L 230.594116 13.227852 
z
" clip-path="url(#pc41d7e54d9)" style="fill: #253494; stroke: #262626; stroke-width: 0.6"/>
    <path d="M 234.836757 18.184811 
L 239.079397 13.94217 
L 234.836757 9.699529 
L 230.594116 13.94217 
z
" clip-path="url(#pc41d7e54d9)" style="fill: #2260a9; stroke: #262626; stroke-width: 0.6"/>
    <path d="M 234.836757 20.806991 
L 239.079397 16.56435 
L 234.836757 12.321709 
L 230.594116 16.56435 
z
" clip-path="url(#pc41d7e54d9)" style="fill: #2094c0; stroke: #262626; stroke-width: 0.6"/>
    <path d="M 227.045189 27.516155 
L 231.28783 23.273514 
L 227.045189 19.030873 
L 222.802549 23.273514 
z
" clip-path="url(#pc41d7e54d9)" style="fill: #48b9c3; stroke: #262626; stroke-width: 0.6"/>
    <path d="M 195.878919 33.212615 
L 200.12156 28.969974 
L 195.878919 24.727333 
L 191.636278 28.969974 
z
" clip-path="url(#pc41d7e54d9)" style="fill: #89d1ba; stroke: #262626; stroke-width: 0.6"/>
    <path d="M 156.921081 34.586999 
L 161.163722 30.344358 
L 156.921081 26.101717 
L 152.67844 30.344358 
z
" clip-path="url(#pc41d7e54d9)" style="fill: #ceecb3; stroke: #262626; stroke-width: 0.6"/>
    <path d="M 117.963243 42.525875 
L 122.205884 38.283234 
L 117.963243 34.040593 
L 113.720603 38.283234 
z
" clip-path="url(#pc41d7e54d9)" style="fill: #f1faba; stroke: #262626; stroke-width: 0.6"/>
   </g>
  </g>
  <g id="axes_2">
   <g id="patch_5">
    <path d="M 76.86 176.616 
L 228.06 176.616 
L 228.06 167.112 
L 76.86 167.112 
z
" style="fill: #ffffff"/>
   </g>
   <g id="QuadMesh_1">
    <path d="M 76.86 176.616 
L 95.76 176.616 
L 95.76 167.112 
L 76.86 167.112 
L 76.86 176.616 
" clip-path="url(#p729c9f33a3)" style="fill: #f1faba; stroke: #ffffff; stroke-width: 0.6"/>
    <path d="M 95.76 176.616 
L 114.66 176.616 
L 114.66 167.112 
L 95.76 167.112 
L 95.76 176.616 
" clip-path="url(#p729c9f33a3)" style="fill: #ceecb3; stroke: #ffffff; stroke-width: 0.6"/>
    <path d="M 114.66 176.616 
L 133.56 176.616 
L 133.56 167.112 
L 114.66 167.112 
L 114.66 176.616 
" clip-path="url(#p729c9f33a3)" style="fill: #89d1ba; stroke: #ffffff; stroke-width: 0.6"/>
    <path d="M 133.56 176.616 
L 152.46 176.616 
L 152.46 167.112 
L 133.56 167.112 
L 133.56 176.616 
" clip-path="url(#p729c9f33a3)" style="fill: #48b9c3; stroke: #ffffff; stroke-width: 0.6"/>
    <path d="M 152.46 176.616 
L 171.36 176.616 
L 171.36 167.112 
L 152.46 167.112 
L 152.46 176.616 
" clip-path="url(#p729c9f33a3)" style="fill: #2094c0; stroke: #ffffff; stroke-width: 0.6"/>
    <path d="M 171.36 176.616 
L 190.26 176.616 
L 190.26 167.112 
L 171.36 167.112 
L 171.36 176.616 
" clip-path="url(#p729c9f33a3)" style="fill: #2260a9; stroke: #ffffff; stroke-width: 0.6"/>
    <path d="M 190.26 176.616 
L 209.16 176.616 
L 209.16 167.112 
L 190.26 167.112 
L 190.26 176.616 
" clip-path="url(#p729c9f33a3)" style="fill: #253494; stroke: #ffffff; stroke-width: 0.6"/>
    <path d="M 209.16 176.616 
L 228.06 176.616 
L 228.06 167.112 
L 209.16 167.112 
L 209.16 176.616 
" clip-path="url(#p729c9f33a3)" style="fill: #081d58; stroke: #ffffff; stroke-width: 0.6"/>
   </g>
   <g id="matplotlib.axis_3">
    <g id="xtick_6">
     <g id="line2d_35"/>
     <g id="text_20">
      <text style="font-size: 6.5px; font-family: 'Nimbus Roman', 'Times New Roman', 'Liberation Serif', 'DejaVu Serif', serif; text-anchor: middle; fill: #404040" x="86.31" y="183.055297" transform="rotate(-0 86.31 183.055297)">30</text>
     </g>
    </g>
    <g id="xtick_7">
     <g id="line2d_36"/>
     <g id="text_21">
      <text style="font-size: 6.5px; font-family: 'Nimbus Roman', 'Times New Roman', 'Liberation Serif', 'DejaVu Serif', serif; text-anchor: middle; fill: #404040" x="105.21" y="183.055297" transform="rotate(-0 105.21 183.055297)">40</text>
     </g>
    </g>
    <g id="xtick_8">
     <g id="line2d_37"/>
     <g id="text_22">
      <text style="font-size: 6.5px; font-family: 'Nimbus Roman', 'Times New Roman', 'Liberation Serif', 'DejaVu Serif', serif; text-anchor: middle; fill: #404040" x="124.11" y="183.055297" transform="rotate(-0 124.11 183.055297)">50</text>
     </g>
    </g>
    <g id="xtick_9">
     <g id="line2d_38"/>
     <g id="text_23">
      <text style="font-size: 6.5px; font-family: 'Nimbus Roman', 'Times New Roman', 'Liberation Serif', 'DejaVu Serif', serif; text-anchor: middle; fill: #404040" x="143.01" y="183.055297" transform="rotate(-0 143.01 183.055297)">60</text>
     </g>
    </g>
    <g id="xtick_10">
     <g id="line2d_39"/>
     <g id="text_24">
      <text style="font-size: 6.5px; font-family: 'Nimbus Roman', 'Times New Roman', 'Liberation Serif', 'DejaVu Serif', serif; text-anchor: middle; fill: #404040" x="161.91" y="183.055297" transform="rotate(-0 161.91 183.055297)">70</text>
     </g>
    </g>
    <g id="xtick_11">
     <g id="line2d_40"/>
     <g id="text_25">
      <text style="font-size: 6.5px; font-family: 'Nimbus Roman', 'Times New Roman', 'Liberation Serif', 'DejaVu Serif', serif; text-anchor: middle; fill: #404040" x="180.81" y="183.055297" transform="rotate(-0 180.81 183.055297)">80</text>
     </g>
    </g>
    <g id="xtick_12">
     <g id="line2d_41"/>
     <g id="text_26">
      <text style="font-size: 6.5px; font-family: 'Nimbus Roman', 'Times New Roman', 'Liberation Serif', 'DejaVu Serif', serif; text-anchor: middle; fill: #404040" x="199.71" y="183.055297" transform="rotate(-0 199.71 183.055297)">90</text>
     </g>
    </g>
    <g id="xtick_13">
     <g id="line2d_42"/>
     <g id="text_27">
      <text style="font-size: 6.5px; font-family: 'Nimbus Roman', 'Times New Roman', 'Liberation Serif', 'DejaVu Serif', serif; text-anchor: middle; fill: #404040" x="218.61" y="183.055297" transform="rotate(-0 218.61 183.055297)">100</text>
     </g>
    </g>
    <g id="text_28">
     <!-- constraint level (% of $U_\mathrm{ref}$) -->
     <g transform="translate(114.765 190.746781)">
      <text>
       <tspan x="0" y="-0.8125" style="font-size: 7px; font-family: 'Nimbus Roman'">c</tspan>
       <tspan x="3.107986" y="-0.8125" style="font-size: 7px; font-family: 'Nimbus Roman'">o</tspan>
       <tspan x="6.607986" y="-0.8125" style="font-size: 7px; font-family: 'Nimbus Roman'">n</tspan>
       <tspan x="10.107986" y="-0.8125" style="font-size: 7px; font-family: 'Nimbus Roman'">s</tspan>
       <tspan x="12.830978" y="-0.8125" style="font-size: 7px; font-family: 'Nimbus Roman'">t</tspan>
       <tspan x="14.776978" y="-0.8125" style="font-size: 7px; font-family: 'Nimbus Roman'">r</tspan>
       <tspan x="17.107971" y="-0.8125" style="font-size: 7px; font-family: 'Nimbus Roman'">a</tspan>
       <tspan x="20.215958" y="-0.8125" style="font-size: 7px; font-family: 'Nimbus Roman'">i</tspan>
       <tspan x="22.161957" y="-0.8125" style="font-size: 7px; font-family: 'Nimbus Roman'">n</tspan>
       <tspan x="25.661957" y="-0.8125" style="font-size: 7px; font-family: 'Nimbus Roman'">t</tspan>
       <tspan x="27.607956" y="-0.8125" style="font-size: 7px; font-family: 'Nimbus Roman'"> </tspan>
       <tspan x="29.357956" y="-0.8125" style="font-size: 7px; font-family: 'Nimbus Roman'">l</tspan>
       <tspan x="31.303955" y="-0.8125" style="font-size: 7px; font-family: 'Nimbus Roman'">e</tspan>
       <tspan x="34.411942" y="-0.8125" style="font-size: 7px; font-family: 'Nimbus Roman'">v</tspan>
       <tspan x="37.911942" y="-0.8125" style="font-size: 7px; font-family: 'Nimbus Roman'">e</tspan>
       <tspan x="41.019928" y="-0.8125" style="font-size: 7px; font-family: 'Nimbus Roman'">l</tspan>
       <tspan x="42.965927" y="-0.8125" style="font-size: 7px; font-family: 'Nimbus Roman'"> </tspan>
       <tspan x="44.715927" y="-0.8125" style="font-size: 7px; font-family: 'Nimbus Roman'">(</tspan>
       <tspan x="47.046921" y="-0.8125" style="font-size: 7px; font-family: 'Nimbus Roman'">%</tspan>
       <tspan x="52.877914" y="-0.8125" style="font-size: 7px; font-family: 'Nimbus Roman'"> </tspan>
       <tspan x="54.627914" y="-0.8125" style="font-size: 7px; font-family: 'Nimbus Roman'">o</tspan>
       <tspan x="58.127914" y="-0.8125" style="font-size: 7px; font-family: 'Nimbus Roman'">f</tspan>
       <tspan x="60.458908" y="-0.8125" style="font-size: 7px; font-family: 'Nimbus Roman'"> </tspan>
       <tspan x="73.01125" y="-0.8125" style="font-size: 7px; font-family: 'Nimbus Roman'">)</tspan>
       <tspan x="62.208908" y="-0.8125" style="font-style: italic; font-size: 7px; font-family: 'STIXGeneral'">U</tspan>
       <tspan x="67.262894" y="0.115625" style="font-size: 4.9px; font-family: 'STIXGeneral'">r</tspan>
       <tspan x="68.894589" y="0.115625" style="font-size: 4.9px; font-family: 'STIXGeneral'">e</tspan>
       <tspan x="71.07018" y="0.115625" style="font-size: 4.9px; font-family: 'STIXGeneral'">f</tspan>
      </text>
     </g>
    </g>
   </g>
   <g id="matplotlib.axis_4"/>
   <g id="patch_6">
    <path d="M 76.86 176.616 
L 76.86 167.112 
" style="fill: none; stroke: #8c8c8c; stroke-width: 0.5; stroke-linejoin: miter; stroke-linecap: square"/>
   </g>
   <g id="patch_7">
    <path d="M 228.06 176.616 
L 228.06 167.112 
" style="fill: none; stroke: #8c8c8c; stroke-width: 0.5; stroke-linejoin: miter; stroke-linecap: square"/>
   </g>
   <g id="patch_8">
    <path d="M 76.86 176.616 
L 228.06 176.616 
" style="fill: none; stroke: #8c8c8c; stroke-width: 0.5; stroke-linejoin: miter; stroke-linecap: square"/>
   </g>
   <g id="patch_9">
    <path d="M 76.86 167.112 
L 228.06 167.112 
" style="fill: none; stroke: #8c8c8c; stroke-width: 0.5; stroke-linejoin: miter; stroke-linecap: square"/>
   </g>
  </g>
 </g>
 <defs>
  <clipPath id="pc41d7e54d9">
   <rect x="32.256" y="5.94" width="216.216" height="135.63"/>
  </clipPath>
  <clipPath id="p729c9f33a3">
   <rect x="76.86" y="167.112" width="151.2" height="9.504"/>
  </clipPath>
 </defs>
</svg>
